<svg xmlns="http://www.w3.org/2000/svg" width="252.805" height="260.421" viewBox="0 0 252.805 260.421">
  <defs>
    <style>
      .cls-1 {
        fill: #363636;
      }
    </style>
  </defs>
  <g id="Group_8" data-name="Group 8" transform="translate(-80.169 -396.949)">
    <g id="Group_7" data-name="Group 7" transform="translate(80.169 396.949)">
      <path id="Path_13" data-name="Path 13" class="cls-1" d="M424.981,495.727c2.215-.746,4.236-.958,5.9.916a7.091,7.091,0,0,1,1.794,5.894,80.849,80.849,0,0,0-1.206,14.469,23.258,23.258,0,0,1-5.494,16.157,11.962,11.962,0,0,1-4.744,3.8,1.3,1.3,0,0,1-.539.172c-1.735-.2-1.289.888-1.124,1.845.387,2.25.7,4.513,1.147,6.751.4,1.986.946,3.941,1.4,5.916a16,16,0,0,0,.36,1.957c.147.4.566.927.918.973a27.692,27.692,0,0,0,9.407-.306,4.928,4.928,0,0,1-3.589,3.52c-2.435.432-4.9.76-7.358.983a46.709,46.709,0,0,1-6.136.188c-6.038-.253-11.5-1.99-15.845-6.462a23.8,23.8,0,0,1-1.911-1.8,17.849,17.849,0,0,0,1.439,2.649,18.35,18.35,0,0,0,2.212,2.089l-.247.262c-1.153-.96-2.356-1.867-3.448-2.891-2.221-2.083-4.35-4.265-6.578-6.34-1.964-1.83-4.049-3.585-6.779-4.066a17.408,17.408,0,0,0-4.44.083,9.754,9.754,0,0,1,7.016,2.155,59.57,59.57,0,0,1,5.8,5.536c3.96,4.079,7.737,8.393,13.263,10.45a18.47,18.47,0,0,0,8.288.808c.827-.078,1.674.031,2.5-.069,4.1-.5,8.2-.928,12.271-1.605a6.8,6.8,0,0,0,5.108-4.188,11.558,11.558,0,0,0,1.028-7.137c-.631-3.344-2.822-4.988-6.674-5.083.706-.486,2.282-.388,3.616.305a7.094,7.094,0,0,1,3.931,5.953,10.99,10.99,0,0,1-3.376,9.459,10.551,10.551,0,0,1-5.811,2.4c-1.613.255-2.312,1.833-3.717,2.356-.113.042-.152.4-.152.609a55.4,55.4,0,0,1-1.378,12.12,32.469,32.469,0,0,1-1.246,3.684c-.057.16-.227.28-.344.418a1.473,1.473,0,0,1-.257-.463c-.136-1.068-.305-2.138-.348-3.212-.059-1.472-.015-2.948-.015-4.422l-.335-.128a12.758,12.758,0,0,0-.88,2.1c-.441,1.945-.739,3.922-1.163,5.871a12.682,12.682,0,0,1-3.19,6.1c-1.71,1.8-3.673,3.355-5.549,4.99a2.631,2.631,0,0,1-.887.312,2.6,2.6,0,0,1,.1-.878c.7-1.38,1.447-2.737,2.177-4.1a.453.453,0,0,0,.029-.429,53.691,53.691,0,0,1-5.09,3.748c-2.528,1.46-4.294,3.754-6.558,5.487a33.613,33.613,0,0,1-11.813,6.213,7.515,7.515,0,0,1-1.074.128l-.3-.394,3.241-2.635-.21-.255a31.506,31.506,0,0,0-7.751,3.266c-2.966,1.56-4.987,4.077-6.881,6.737-.853,1.2-1.84,1.448-2.764.225-.765-1.013-1.5-2.047-2.277-3.052-2.2-2.857-5.328-4.378-8.5-5.8-1.259-.565-2.58-.993-3.872-1.484l-.243.345,3.207,2.639-.334.528a28.536,28.536,0,0,1-3.37-.95,32.987,32.987,0,0,1-10.863-6.776c-2.362-2.341-5.155-4.076-7.758-6.077a20.259,20.259,0,0,0-2.715-1.86c.546.96,1.111,1.91,1.629,2.885a20.524,20.524,0,0,1,.85,1.9,1.87,1.87,0,0,1,.036.588,1.789,1.789,0,0,1-.6-.163c-1.025-.749-2.072-1.475-3.036-2.3a17.923,17.923,0,0,1-6.577-11.4,45.52,45.52,0,0,0-.983-4.531,4.965,4.965,0,0,0-.747-1.144c-.027.6-.046.938-.057,1.272-.066,2.079-.117,4.158-.208,6.236a2.818,2.818,0,0,1-.342.852c-.184-.217-.466-.407-.537-.656a50.212,50.212,0,0,1-1.671-6.32c-.451-3.081-.553-6.213-.844-9.319a1.43,1.43,0,0,0-.527-.864,20.263,20.263,0,0,0-1.825-1.144,85.44,85.44,0,0,0,16.031.734,16.324,16.324,0,0,0,9.247-3.907,52.692,52.692,0,0,0,8.62-8.812c.113-.142.146-.347.415-.315l-1.8,3.854.22.119c.277-.438.556-.875.83-1.315A22.436,22.436,0,0,1,358,546.507c2.272-1.679,4.788-1.6,7.376-1.247a13.187,13.187,0,0,0,1.763.174c-3.867-1.662-7.632-2.134-11.08,1.045,2.29-2.231,4.793-3.937,8.141-3.717a6.972,6.972,0,0,0-4.241-.026c-3.259.941-5.445,3.31-7.673,5.652-2.07,2.175-4.191,4.3-6.3,6.438a20.823,20.823,0,0,1-7.172,4.985,16.978,16.978,0,0,1-5.226,1.234,65.379,65.379,0,0,1-9.216-.185,75.8,75.8,0,0,1-9.195-1.493c-3.744-.821-5.23-3.729-5.987-7.144a7.387,7.387,0,0,1,.857-5.7,5.679,5.679,0,0,1,4.982-2.871,1.237,1.237,0,0,1,.635.22,5.329,5.329,0,0,0-3.995,1.316c-1.945,1.792-1.878,4.1-1.738,6.476.146,2.463,2.11,2.353,3.636,2.52a72.77,72.77,0,0,0,7.327.228,1.031,1.031,0,0,0,.763-.612c.67-2.769,1.343-5.54,1.89-8.335.493-2.521.844-5.071,1.208-7.614.026-.184-.338-.6-.537-.612a5.957,5.957,0,0,1-3.606-1.79,22.7,22.7,0,0,1-7.5-13.6,34.467,34.467,0,0,1-.262-6.033,53.142,53.142,0,0,0-1.1-11.489,8.525,8.525,0,0,1,1.045-6.878,4.342,4.342,0,0,1,3.97-2.213,2.3,2.3,0,0,0,.677-.182c-.059-.172-.067-.4-.186-.508-3.042-2.634-4.021-6.26-4.7-9.981-.934-5.083-1.9-10.17-2.547-15.294a92.168,92.168,0,0,1-.276-9.351c0-.116-.026-.231-.313-.388L308.2,465.87c-1.092-2.779-.421-5.531-.007-8.621-.479.739-.794,1.207-1.09,1.687a14.115,14.115,0,0,1-.915,1.4,29.742,29.742,0,0,1,5.791-13.078c1.463-1.962,3.37-3.59,4.846-5.544a19.176,19.176,0,0,1,5.318-4.864c2.29-1.408,4.554-2.886,7.32-3.264a12.94,12.94,0,0,0-9.55,1.267,17.676,17.676,0,0,0-6.943,6.834c1.083-4.979,5.395-8.591,10.969-10.063h-2.95l-.29-.4a3.131,3.131,0,0,0,.6-.19,7.293,7.293,0,0,1,6.048-.72,3.07,3.07,0,0,0,.879.025c-.179-.26-.3-.6-.548-.765-.807-.53-1.658-.994-2.449-1.458,1.165-.606,2.679-.243,4.029.974a18.548,18.548,0,0,0,1.548,1.139c.047-.623.1-1.246.138-1.869a14.429,14.429,0,0,1,4.9-10.227,1.288,1.288,0,0,1,.32-.192,1.076,1.076,0,0,1,.276-.024L335.9,419.6c1.763-1.565,3.473-3.167,5.274-4.663a31.4,31.4,0,0,1,10.832-5.652c1.934-.608,3.926-1.034,5.859-1.646,3.1-.983,5.666-2.6,6.529-6.125.295.934-.437,2.881-1.277,3.934-2.006,2.511-4.9,3.369-7.765,4.328-2.193.734-4.37,1.52-6.539,2.322a2.738,2.738,0,0,0-1.271,1.044c1.623-.394,3.252-.763,4.867-1.187,3.556-.935,7.1-1.9,10.655-2.849a9.567,9.567,0,0,0,6.489-4.736c-1.2,3.944-4.544,5.37-7.908,6.879a52.858,52.858,0,0,0,5.87-1.848,73.4,73.4,0,0,0,8.225-4.2,10.572,10.572,0,0,0,5.055-6.79c.057-.246.055-.506.091-.758a2,2,0,0,1,.207-.708c.493,2.19-.334,4.066-1.465,5.844a16.852,16.852,0,0,1-6.737,5.628c-2.431,1.282-4.954,2.391-7.385,3.785,1.442-.278,2.915-.452,4.321-.856,2.84-.815,5.735-1.658,8.005-3.626a25,25,0,0,0,3.6-4.276,22.731,22.731,0,0,0,2.124-3.671,3.071,3.071,0,0,1,3.43-1.6c4.165.54,6.889,3.251,9.54,6.179a41.236,41.236,0,0,0,5.8,5.546c2.209,1.64,5,1.8,7.7,1.643s5.394-.416,8.074-.763a16.993,16.993,0,0,1,6.6.546,13.832,13.832,0,0,1,6.519,4.134,21.3,21.3,0,0,1,5.023,8.455,16.714,16.714,0,0,1,.448,1.937c-2.857-5.631-5.918-11.043-12.413-13.1l-.259.27c.886.691,1.775,1.378,2.657,2.074,3.4,2.683,5.3,6.358,6.846,10.278a10.107,10.107,0,0,0,1.3,2.279,25.369,25.369,0,0,1,4.6,11.171,20.224,20.224,0,0,1-.016,7.4,6.8,6.8,0,0,1-.253.736c-.431-5.1-.757-10.053-3.49-14.439.153.873.3,1.746.461,2.617.168.9.389,1.8.521,2.709,1.018,7,.667,13.794-3.133,20.054a2.74,2.74,0,0,0-.24,1.471,43.563,43.563,0,0,1,.307,5.338c-.291,3.735-.7,7.47-1.3,11.167-.626,3.878-1.468,7.724-2.325,11.56a12.536,12.536,0,0,1-3.824,6.905A11.182,11.182,0,0,0,424.981,495.727Zm-24.1-36.363a14.912,14.912,0,0,1-11.4-.041l-.051.278,3.324,1.148c-1.806-.516-3.659-.909-5.408-1.574-3.747-1.425-7.4-3.093-11.166-4.475-6.156-2.262-12.2-2.48-18,1.256a10.7,10.7,0,0,1-6.712,1.737c-3.737-.323-7.5-.717-10.666-3.076-.325-.242-.63-.4-.662.255-.114,2.343-.269,4.678.678,6.928a18.838,18.838,0,0,1,.965,3.023,4.443,4.443,0,0,1-2.559,5.488c-.824.431-1.649.864-2.453,1.331-3.917,2.276-6.816,5.356-7.552,10.005-.541,3.421-1.042,6.855-1.383,10.3-.524,5.3-.931,10.614-1.318,15.927a54.018,54.018,0,0,0,.35,13.245c.434,2.5.781,5.023,1.461,7.454a17.2,17.2,0,0,0,5.59,8.371,9.028,9.028,0,0,1,3.244,5.1,5.532,5.532,0,0,0,.362.931,10.2,10.2,0,0,0,.819-.635,19.652,19.652,0,0,1,7.241-4.621,26.6,26.6,0,0,1,14.625-.439c.641.146,1.277.318,2.039.509a4.646,4.646,0,0,0-.323-.653c-2.194-2.892-.9-6.549,2.243-8.3,1.163-.648,2.259-1.415,3.4-2.135a3.444,3.444,0,0,1-.492.592c-.907.709-1.8,1.44-2.758,2.075a5.412,5.412,0,0,0-2.762,4.954c.093,2.164,1.806,3.964,3.672,3.852a2.639,2.639,0,0,0-.253-.412c-.467-.511-.995-1.031-.395-1.745a1.509,1.509,0,0,1,2.092-.293,9.555,9.555,0,0,1,1.756,1.594c1.9,2.042,3.679,3.126,5.966,1.423.735-.547,1.272-1.356,1.99-1.932a6.188,6.188,0,0,1,2.16-1.278,1.173,1.173,0,0,1,1.407,1.555,5.331,5.331,0,0,0-.143.752,3.247,3.247,0,0,0,.768-.33,4.46,4.46,0,0,0,.788-6.218,23.083,23.083,0,0,0-3.471-2.961c-.592-.5-1.151-1.04-1.726-1.562,1.393.794,2.73,1.6,4.034,2.462a5.367,5.367,0,0,1,1.431,8.157c-.131.174-.241.364-.434.657.332-.049.545-.069.753-.112,2.128-.44,4.236-1.063,6.386-1.289,4.172-.438,8.329-.144,12.1,1.864a54.3,54.3,0,0,1,5.508,3.817c.282.2.665.731.8-.034.463-2.658,2.227-4.406,4.1-6.108a18.538,18.538,0,0,0,5.622-10.5c.957-4.852,1.867-9.688,1.212-14.7-1.22-9.322-2.3-18.663-3.456-27.993-.432-3.487-1.653-6.664-4.453-8.9a43.1,43.1,0,0,0-5.968-3.829,4.174,4.174,0,0,1-2.477-4.46,24.037,24.037,0,0,1,1.088-4.07c.237-.735.072-.768-.618-.7a49.764,49.764,0,0,1-5.644.369,18.5,18.5,0,0,1-3.434-.673c6.074.964,11.218-1.273,15.971-4.727,1.893-1.376,3.639-2.953,5.5-4.375a53.962,53.962,0,0,1,6.829-4.954c4.1-2.206,8.233.075,8.948,4.684a35.385,35.385,0,0,1,.2,3.694,9.255,9.255,0,0,0-.2-5.331c-1.332-3.771-4.905-5.567-8.569-3.949a34.9,34.9,0,0,0-6.186,3.99c-3.5,2.548-6.91,5.207-10.358,7.819.545-.486,1.128-.936,1.627-1.466,1.05-1.118,2.056-2.278,3.08-3.42l-.243-.2c-5.538,5.509-11.787,8.254-19.59,5.158a7.215,7.215,0,0,0,4.481,2.131A17.982,17.982,0,0,0,400.877,459.364ZM332.89,549l.03.732c.213-.05.481-.036.631-.162.933-.781,1.8-1.638,2.765-2.381.727-.562.85-1.17.4-2.2l-3.852,4.031a5.059,5.059,0,0,1,.453-.928c.977-1.273,2-2.512,2.967-3.79a1.577,1.577,0,0,0,.389-1,8.773,8.773,0,0,0-2.326-4.96c-1.779-1.875-3.436-3.866-5.15-5.8-.02-.022-.094,0-.171.009.543,2.94,1.061,5.874,1.633,8.8q.672,3.435,1.474,6.842C332.212,548.5,332.631,548.732,332.89,549Zm78.481-.168a7.087,7.087,0,0,1-.827-.615c-.979-.967-1.93-1.963-2.915-2.924-.117-.114-.378-.081-.572-.116a12.724,12.724,0,0,0-.172,2.572c.042.351.686.664,1.1.93.617.4,1.264.753,1.908,1.107,1.125.619,1.3.523,1.587-.818a13.319,13.319,0,0,0,1.158-2.656c.666-3.328,1.194-6.683,1.786-10.026.246-1.394.52-2.784.781-4.176-1.466,2.574-3.643,4.43-5.707,6.392a6.908,6.908,0,0,0-2.075,4.238,2.07,2.07,0,0,0,.357,1.343C408.937,545.7,410.167,547.256,411.371,548.834ZM358.262,559.8l.089-.114c1.073.42,2.121.922,3.222,1.245,4.965,1.454,10.066,1.518,15.172,1.3a24.271,24.271,0,0,0,10.092-2.547c.941-.479.816-.8.184-1.423-.972-.954-1.882-1.972-2.8-2.975-2.85-3.1-6.415-5.3-11.123-3.791a3.718,3.718,0,0,1-1.975.023,9.6,9.6,0,0,0-10.023,2.744,7.524,7.524,0,0,0-.685.973,8.487,8.487,0,0,0,1.045.421c5.52,1.437,11.118,1.362,16.733.81,1.771-.174,3.534-.437,5.3-.659-6.521,2.029-16.29,2.564-22.928-.01a1.405,1.405,0,0,0-1.209.277c-1.153,1.108-2.2,2.325-3.335,3.453a18.085,18.085,0,0,0-2.458,2.259,6.363,6.363,0,0,0,.849,8.2c3.021,3.056,6.759,3.618,10.768,2.8,1.852-.376,3.145-2.795,2.7-4.645-.716-3.012-2.263-5.183-5.58-5.693-1.291-.2-2.547-.629-3.819-.953l.032-.136,2.92.38a4.868,4.868,0,0,0-1.5-1.035C359.377,560.409,358.821,560.1,358.262,559.8Zm72.192-61.835a3.261,3.261,0,0,0-3.512-2.159c-2.085.13-3.02.9-3.36,2.928a23.43,23.43,0,0,0-.341,3.539,34,34,0,0,1-3.734,15.09,6.736,6.736,0,0,0-.8,3.644c.237,3.811.319,7.631.471,11.446a3.885,3.885,0,0,0,.161.709,3.564,3.564,0,0,0,.675-.433c.473-.479.867-1.042,1.369-1.485a14.777,14.777,0,0,0,4.639-8.551c.233-1.174.452-2.352.677-3.527a1.151,1.151,0,0,1,.371.723c.464,4.394-.478,8.348-3.654,11.594-.786.8-1.625,1.557-2.372,2.395a17.616,17.616,0,0,0-1.468,2.01,2.1,2.1,0,0,0-.161.721c.274.013.594.125.813.022a9.138,9.138,0,0,0,2.074-1.166,21.064,21.064,0,0,0,5.111-6.794,24.058,24.058,0,0,0,2.438-11.172,42.68,42.68,0,0,1,.978-11.857,8.464,8.464,0,0,0-.322-4.82c-.483-1.559-1.578-1.952-2.992-1.15-1.731.982-2.217,2.654-2.365,4.473-.156,1.917-.234,3.841-.4,5.757a7.446,7.446,0,0,1-.456,1.5,61.409,61.409,0,0,1-.674-6.89C423.371,500.019,426.134,497.379,430.454,497.964ZM320.255,511.4l-.294.081a23.236,23.236,0,0,1-.562-2.658c-.187-1.914-.2-3.847-.424-5.755a4.23,4.23,0,0,0-2.376-3.512c-1.272-.618-2.294-.347-2.7.973a8.346,8.346,0,0,0-.609,4.026,52.28,52.28,0,0,1,1.08,12.633,23.909,23.909,0,0,0,5.944,16.648,19.873,19.873,0,0,0,3.532,2.728c.242.171.669.08,1.011.11a2.574,2.574,0,0,0-.247-.958,23.9,23.9,0,0,0-2.714-3.215,13.64,13.64,0,0,1-4.754-9.465,37.066,37.066,0,0,1,.074-3.744l.375,0c.068.334.112.676.208,1,.723,2.45,1.144,5.055,2.281,7.3.986,1.942,2.784,3.472,4.235,5.174a3.882,3.882,0,0,0,.629.491,4.487,4.487,0,0,0,.187-.816c.142-3.368.281-6.737.386-10.107a2.468,2.468,0,0,0-.286-1.184,47.408,47.408,0,0,1-4.315-11.612,6.267,6.267,0,0,0-.257-.712l-.292.042Zm61.482,61.716a11.63,11.63,0,0,0,7.217-2.228,6.732,6.732,0,0,0,1.82-9.068,1.564,1.564,0,0,0-1.987-.792,47.664,47.664,0,0,1-6.758,1.43,5.417,5.417,0,0,0-4.626,3.063c-.778,1.54-1.432,3.09-.759,4.863C377.553,572.785,379.541,573.139,381.737,573.121Zm-25.325-121.3a2.28,2.28,0,0,0-.125-.349q-.392-.354-.788-.7a16.373,16.373,0,0,1-5.807-11.065,15.719,15.719,0,0,1,12.094-16.852c4.579-.992,9.345-1.124,14.027-1.633,4.207-.458,8.439-.749,12.615-1.4a13.76,13.76,0,0,0,9.44-5.413,7.3,7.3,0,0,0,1.615-3.905,11.474,11.474,0,0,1-6.817,7.258,12.547,12.547,0,0,1-3.481,1.061c-5.006.527-10.026.911-15.038,1.375-3.958.366-7.982.428-11.853,1.226a16.618,16.618,0,0,0-11.917,23.491A16.937,16.937,0,0,0,356.412,451.823Zm22.953,87.868.036.222c2.554-.136,5.109-.408,7.66-.382,5.809.059,10.7,2.118,14.171,6.987.428.6.945,1.133,1.41,1.706,3.277,4.037,7.621,5,12.529,4.317a13.741,13.741,0,0,0-1.861-.282,12.155,12.155,0,0,1-9.5-5.092c-.648-.916-1.347-1.8-2.014-2.7a14.305,14.305,0,0,0-5.92-4.773,19.2,19.2,0,0,0-10.932-1.215C383.07,538.787,381.224,539.281,379.364,539.691Zm-14.107.585.029-.234c-2.014-.27-4.02-.62-6.041-.8-6.64-.581-12.724.606-17.858,5.314a79.135,79.135,0,0,1-7.76,6,23.523,23.523,0,0,1-4.015,2.008,6.223,6.223,0,0,1-1.467.279,7.479,7.479,0,0,0,5.7-1.224c3.4-2.163,6.762-4.411,10.033-6.772,2.512-1.814,5.139-3.372,8.218-3.751,3.55-.437,7.139-.57,10.712-.81C363.622,540.229,364.441,540.276,365.257,540.276Zm12.775-86.9a13.191,13.191,0,0,1-.11-2.7,4.989,4.989,0,0,1,3.788-3.967,27.782,27.782,0,0,1,5.653-.981c5.636-.463,11.135-1.431,16.211-4.06,6.2-3.214,10.672-7.921,12.457-14.854.165-.644.218-1.317.323-1.976a23,23,0,0,1-4.977,9.47c-4.509,5.158-10.411,7.82-16.947,9.185-3.412.713-6.909,1.011-10.352,1.587a8.121,8.121,0,0,0-5.991,3.6A4.326,4.326,0,0,0,378.032,453.377Zm-.386-18.623c2.9-3.321,6.745-4.219,10.909-4.314,2.6-.06,5.2-.015,7.792-.163a19.645,19.645,0,0,0,14.232-7.063c.2-.232.358-.5.535-.751a.824.824,0,0,0-.584.276,19.829,19.829,0,0,1-11.588,5.974c-3.3.42-6.664.245-9.975.585a31.93,31.93,0,0,0-6.627,1.411A7.921,7.921,0,0,0,377.646,434.754Zm1.542,104.176a14.074,14.074,0,0,1-2.384-.029,3.031,3.031,0,0,0-2.162.385,4.464,4.464,0,0,1-4.85-.013c-1.578-1.083-3.006.038-4.519-.193,2.83,1.572,5.694,3,6.855,6.761C373.28,541.958,376.325,540.6,379.188,538.93Zm23.074-117.511c-.19-.032-.259-.067-.306-.048-.237.1-.468.206-.7.311a37.986,37.986,0,0,1-13.25,3.374c-2.718.183-5.449.346-8.134.767a10.162,10.162,0,0,0-7.77,5.238,5.154,5.154,0,0,0-.636,3.689,8.676,8.676,0,0,1,6.788-7.364,26.3,26.3,0,0,1,4.83-.753c4.032-.287,8.071-.462,11.95-1.769A30.589,30.589,0,0,0,402.263,421.419ZM371.245,549.67a17.582,17.582,0,0,0-1.17-1.46,8.422,8.422,0,0,0-11.08-.622c-3.2,2.305-4.879,5.838-7.181,8.891a12.959,12.959,0,0,0,2.24-1.733c1.494-1.454,2.917-2.982,4.428-4.416a9.89,9.89,0,0,1,5.344-2.857A9.442,9.442,0,0,1,371.245,549.67Zm2.015.218a10.281,10.281,0,0,1,5.565-1.154c2.527.251,4.431,1.7,6.344,3.177,1.822,1.408,3.688,2.76,5.567,4.092a11.187,11.187,0,0,0,1.777.821c-2.178-2.159-4.136-4.234-6.247-6.138a16.622,16.622,0,0,0-4-2.763A7.757,7.757,0,0,0,373.26,549.888Zm-27.474-101.7c-.938-1.256-1.871-2.516-2.816-3.766a11.882,11.882,0,0,1-2.439-8.294c.3-4.152,2.154-7.6,4.684-10.759,1.009-1.258,2.106-2.445,3.164-3.665a.779.779,0,0,0-.531.185,26.954,26.954,0,0,0-5.936,6.393,15.7,15.7,0,0,0-2.631,9.38C339.493,442.369,342.626,445.3,345.786,448.184Zm5.768,97.5-.287-.341c-1.052.883-2.127,1.742-3.152,2.656-3.014,2.687-5.938,5.48-9.028,8.076-3.609,3.032-7.881,3.821-12.474,3.18-.7-.1-1.412-.158-2.118-.235,5.856,2.074,11.372,1.55,16.083-2.672C344.373,552.942,347.9,549.246,351.554,545.68Zm10.8-130.659c10.3,3.619,22.986-4.209,23.874-14.741C382.551,412.06,373.675,415.41,362.353,415.021Zm6.534,151.649a3.91,3.91,0,0,0,0,.565,8.592,8.592,0,0,1-3.785,9.189c-3.652,2.583-4.935,6.292-4.488,10.62a45.874,45.874,0,0,0,1,4.825c-.011-2.129-.252-4.2-.2-6.272a10.13,10.13,0,0,1,3.771-7.811,28.575,28.575,0,0,0,2.564-2.328C369.775,573.3,370.323,569.079,368.888,566.67Zm24.967-3.9c4.763,4.641,21.191,5.569,25.5,1.525C410.7,566.43,402.171,566.522,393.854,562.775Zm-18.966,3.917a9.741,9.741,0,0,0-.924,5.682,8.674,8.674,0,0,0,3.553,5.531,10.906,10.906,0,0,1,4.352,7.023c.24,1.641.22,3.32.305,4.982.024.467,0,.936,0,1.4l.281.025c.143-1.348.363-2.693.415-4.045.151-3.932-.987-7.34-4.2-9.857-.555-.435-1.073-.918-1.6-1.39a6.533,6.533,0,0,1-2.4-4.667C374.624,569.834,374.809,568.281,374.888,566.692ZM326,565.963c8.275,1.094,19.95-.475,22.555-3.016A113.245,113.245,0,0,1,326,565.963Zm34.52-134.19a10.255,10.255,0,0,0-4.132,9.885c.5,3.89,2.847,6.547,6.11,8.5-2.465-2.483-4.5-5.211-4.9-8.82A12.488,12.488,0,0,1,360.523,431.772ZM340.3,574.7c-3.826,7.546.2,17.054,6.826,20.068C340.723,589.287,338.573,582.635,340.3,574.7Zm36.251-29.446a37.919,37.919,0,0,1,4.219.027,9.4,9.4,0,0,1,6.349,3.96,30.461,30.461,0,0,0,6.366,6.372c.343.238.7.456.779.506-2.142-2.587-4.407-5.4-6.77-8.135a11.247,11.247,0,0,0-2.752-2.359A8.693,8.693,0,0,0,376.555,545.252Zm20.287,49.478c6.973-4.715,9.027-14.1,6.715-20.351A25.153,25.153,0,0,1,396.842,594.73Zm-7.259-153.071-.089-.073c-2.421.324-4.84.661-7.263.969a7.8,7.8,0,0,0-6.283,3.881,6.473,6.473,0,0,0-.3,6.039c0-.328.011-.613,0-.9a7.137,7.137,0,0,1,5.928-7.8c1.372-.311,2.788-.445,4.147-.8C387.033,442.634,388.3,442.107,389.582,441.659Zm-58.939-5.418c-2.261,5.659,1.726,14.258,7.51,15.882C333.1,447.842,330.23,442.8,330.644,436.241Zm100.967,20.278c1.81-2.613,2.351-7.667-.221-10.883-1.741-2.177-5.661-3.556-7.824-2.555,3.311.275,6.03,1.308,7.594,4.308C432.658,450.264,432.431,453.252,431.611,456.519Zm-33.174,82.316-.191.285c3.221,1.716,4.984,4.728,6.921,7.586a2.331,2.331,0,0,0,.377.433c.4.357.645.341.718-.274.205-1.733.257-3.348-1.62-4.355-1.008-.541-1.851-1.384-2.839-1.971C400.724,539.9,399.562,539.4,398.437,538.835Zm-36.861-.135a7.264,7.264,0,0,0-1.161-.335c-2.484-.2-4.968-.457-7.457-.551-5.9-.222-10.783,2.123-14.96,6.139a1.091,1.091,0,0,0-.362.632,5.1,5.1,0,0,0,.17,1.077,7.9,7.9,0,0,0,.761-.532c.8-.7,1.589-1.4,2.358-2.13a18.1,18.1,0,0,1,14.268-5C357.226,538.139,359.249,538.44,361.576,538.7Zm-10.513-81.77c-5.753-1.635-11.109-3.867-14.467-9.257C337.914,452.738,343.926,456.909,351.063,456.93Zm41.992,104.3a32.018,32.018,0,0,0,17.213,3.681Zm35.885-120.888a21.442,21.442,0,0,1,2.25,1.666,10.131,10.131,0,0,1,3.007,7.08c.09,1.633.017,3.275.017,5.191C436.9,448.178,433.854,440.554,428.941,440.343Zm-62.2,142.864c-3.648,3.681-3.736,11.526-.019,14.445C364.095,592.694,364.865,587.954,366.743,583.207Zm-12.4-127.13c-2.358-1.206-4.556-2.134-6.537-3.4s-3.734-2.869-5.379-4.161C343.454,451.953,348.961,455.651,354.343,456.077Zm25.593-16.348c-5.542,1.271-8.737,7.447-6.558,11.976a11.558,11.558,0,0,1,1.475-6.965A15.649,15.649,0,0,1,379.936,439.729Zm-64.445,57.935.17-.219c.953.516,1.917,1.011,2.852,1.558a9.809,9.809,0,0,1,1.1.866,5.255,5.255,0,0,0-.113-1.534,4.964,4.964,0,0,0-1.233-2.274c-1.162-.824-3.716.117-4.387,1.392a2.092,2.092,0,0,0-.119.548,3.364,3.364,0,0,0,.533-.033C314.7,497.88,315.094,497.767,315.491,497.665Zm40.946-43.54a42.91,42.91,0,0,1-5.238-4.153,43.1,43.1,0,0,1-3.853-5.44C347.2,448.555,352.522,454.183,356.437,454.125Zm20.655,128.768c.821,5.027,1.649,9.746.306,14.5C379.942,594.086,379.639,587.5,377.092,582.893ZM360.554,437.18c-2.085,4.158.706,11.3,4.805,12.658C362.124,445.606,360.734,444.569,360.554,437.18Zm28.356,10.814a8.467,8.467,0,0,0-4.74-.627,4.707,4.707,0,0,0-3.661,2.5c-.744,1.5-.367,3.563.648,4.3a11.211,11.211,0,0,1-.192-2.432c.25-1.983,1.948-3.286,4.434-3.525C386.566,448.1,387.739,448.063,388.909,447.994ZM357.051,583.342c-2.5,3.625-1.486,9.98,1.543,12.551A20.427,20.427,0,0,1,357.051,583.342ZM385.48,595.75a17.355,17.355,0,0,0,1.554-12.255Q386.257,589.623,385.48,595.75Zm-51.107-12.466c-2.357-4.04-1.187-7.751.145-11.6C331.154,574.366,331,580.923,334.373,583.284Zm75.71-.561c1.875-1.844,1.439-7.361-.674-11.086.249,2.155.544,3.985.65,5.826S410.083,581.139,410.083,582.723ZM369,450.878a28.644,28.644,0,0,1-2.851-3.357,25.359,25.359,0,0,1-1.61-3.808C363.662,446.662,365.542,449.812,369,450.878Zm13.373,4.03c.592-2.462,1.651-4.508,4.336-5.254a3.5,3.5,0,0,0-3.609,1.024C381.981,451.9,382.022,453.362,382.372,454.908Zm-54.6,113.847c-2.033,1.371-1.557,5.383,0,6.135Zm88.521,6.4a11.855,11.855,0,0,0-.223-6.737A9.566,9.566,0,0,0,416.289,575.153Zm-31.965-13.723.031.156,4.843-.825.088-.342c-.562-.3-1.263-.964-1.659-.816A22.868,22.868,0,0,0,384.324,561.431Zm-3.678,26.634a9.865,9.865,0,0,0-2.335-6.992Zm-15.866-5.977a8.791,8.791,0,0,0-2.49,6.211Z" transform="translate(-246.534 -396.949)"/>
      <path id="Path_14" data-name="Path 14" class="cls-1" d="M122.115,495.038c0,3.5.05,7-.015,10.505-.06,3.26-.215,6.518-.382,9.775-.151,2.93-.337,5.86-.577,8.784-.342,4.155-.759,8.3-1.124,12.457-.281,3.205-.511,6.415-.8,9.62s-.631,6.394-.931,9.593c-.155,1.65-.349,3.3-.387,4.956-.108,4.712-.157,9.426-.207,14.139-.029,2.687-.745,3.539-3.364,3.894-2.1.285-2.274.389-2.4,2.6-.249,4.466-.576,8.937-.574,13.406a80.227,80.227,0,0,1-3.73,25.291,71.7,71.7,0,0,1-8.38,17.377q-.817,1.23-1.6,2.483c-.321.512-.261.747.442.828q6.2.706,12.387,1.506c4.347.561,8.705,1.064,13.026,1.786,4.626.774,9.268,1.565,13.807,2.724,6.477,1.655,12.936,3.445,19.272,5.566a160.786,160.786,0,0,1,16.1,6.385c9.86,4.533,19.587,9.352,29.364,14.064,1.232.594,2.448,1.227,3.632,1.909a1.637,1.637,0,0,0,1.769.021c5.7-2.913,11.356-5.917,17.145-8.64q11.383-5.356,22.946-10.329A151.709,151.709,0,0,1,274.682,647c6.091-1.366,12.244-2.475,18.4-3.539,4.221-.73,8.485-1.219,12.737-1.753q4.541-.57,9.1-.952c1.045-.086.827-.472.469-1.049-1.256-2.022-2.524-4.036-3.769-6.066a53.575,53.575,0,0,1-5.488-12.012,129.5,129.5,0,0,1-3.262-12.595,53.591,53.591,0,0,1-.828-8.546c-.174-4.227-.079-8.465-.249-12.692-.1-2.6-.473-5.194-.76-7.786a1.289,1.289,0,0,0-1.561-1.269,6.311,6.311,0,0,1-2.071-.253,2.86,2.86,0,0,1-1.928-2.978c-.01-3.373.1-6.751-.027-10.119-.127-3.4-.475-6.8-.735-10.2-.19-2.478-.37-4.957-.6-7.432-.291-3.168-.639-6.33-.934-9.5-.165-1.777-.262-3.561-.408-5.34-.309-3.745-.635-7.487-.943-11.232q-.133-1.622-.206-3.248c-.143-3.354-.347-6.709-.389-10.065-.105-8.343-.188-16.688-.159-25.032a67.526,67.526,0,0,1,.656-7.317c.328-2.894,2.32-4.3,4.879-4.911a26.645,26.645,0,0,1,6.29-.927c3.692.023,7.395.429,10.669,2.394,2.907,1.744,4.117,4.585,4.551,7.784.3,2.237.489,4.5.588,6.752.139,3.168.144,6.342.216,9.513.054,2.4.045,4.806.205,7.2.242,3.62.621,7.231.916,10.848.163,2,.259,4.011.408,6.015.243,3.273.513,6.543.753,9.816.151,2.066.255,4.136.4,6.2.243,3.4.515,6.8.754,10.2.152,2.164.254,4.332.4,6.5q.365,5.342.761,10.682c.127,1.748.334,3.493.382,5.243.067,2.4-1.134,3.488-3.521,3.69a10.876,10.876,0,0,0-4.01.978,4.4,4.4,0,0,0-2.17,5.625,12.437,12.437,0,0,1,.3,7.563,4.142,4.142,0,0,0-.034,1.056,171.836,171.836,0,0,0,.951,20.487c.507,4.484.889,9.024,2.571,13.232a89.733,89.733,0,0,0,4.5,8.7q2.349,4.4,4.771,8.766a1.754,1.754,0,0,0,.931.679,6.525,6.525,0,0,1,4.444,4.1c.843,2.4-.014,4.421-1.347,6.321a4.812,4.812,0,0,1-1.618,1.593c-1.42.7-1.513,1.95-1.7,3.238a101.654,101.654,0,0,1-4.061,17.2c-.907,2.747-2.45,5.024-5.306,6.129-1.894.733-3.706.142-3.939-1.447a5.18,5.18,0,0,1,.452-2.38c1.119-3.036,2.306-6.046,3.465-9.068a22.161,22.161,0,0,0,1.544-8.29c-.017-1.243-.252-1.377-1.421-1.133-5.431,1.134-10.883,2.168-16.295,3.386-4.142.932-8.271,1.961-12.34,3.17-5.893,1.752-11.782,3.551-17.57,5.617-6.032,2.152-11.986,4.542-17.9,7.017-5.362,2.246-10.628,4.724-15.916,7.142-2.836,1.3-5.633,2.677-8.441,4.032-1.026.495-.995.693-.1,1.389a81.568,81.568,0,0,1,6.6,5.317,26.39,26.39,0,0,1,6.164,8.2,5.934,5.934,0,0,1-1.082,6.607c-2.923,3.156-6.53,3.6-10.347,2.436a68.952,68.952,0,0,1-9.4-3.633c-4.824-2.283-9.529-4.819-14.264-7.286a2.137,2.137,0,0,0-2.294-.121c-3.272,1.828-6.513,3.737-9.9,5.331-4.76,2.241-9.509,4.567-14.638,5.9a9.334,9.334,0,0,1-10.336-3.492c-1.759-2.593-.976-5.007.468-7.385a37.9,37.9,0,0,1,11.66-11.719,6.246,6.246,0,0,0,.892-.9,6.228,6.228,0,0,0-1.034-.766c-7.382-3.422-14.689-7.025-22.185-10.179-8.185-3.445-16.476-6.673-24.854-9.613-6.452-2.263-13.064-4.128-19.695-5.811-6.416-1.629-12.948-2.8-19.428-4.176-.712-.152-1.426-.308-2.125-.51-.924-.267-1.393.126-1.309,1.006a28.459,28.459,0,0,0,.773,5.832c1.211,3.834,2.774,7.556,4.134,11.345a6.245,6.245,0,0,1,.526,2.751c-.209,1.583-2.039,2.157-3.939,1.425-2.861-1.1-4.388-3.388-5.3-6.133a99.029,99.029,0,0,1-3.875-16.072,16.416,16.416,0,0,0-.433-2.625,3.27,3.27,0,0,0-1.1-1.411,8.636,8.636,0,0,1-3.629-5.83,5.907,5.907,0,0,1,4.2-6.25,3.316,3.316,0,0,0,1.913-1.836c1.461-2.814,2.952-5.625,4.651-8.3,3.093-4.869,5.4-10,5.986-15.8.444-4.365.976-8.724,1.32-13.1.259-3.281.359-6.579.382-9.87a42.476,42.476,0,0,0-.411-6.293,10.581,10.581,0,0,1,.525-4.862,5.43,5.43,0,0,0-.356-4.781,5.361,5.361,0,0,0-4.067-2.35c-.909-.133-1.831-.2-2.729-.383a2.671,2.671,0,0,1-2.356-2.817c.047-2.036.258-4.069.416-6.1.088-1.142.242-2.279.311-3.421.214-3.537.382-7.077.605-10.613.233-3.69.507-7.378.768-11.067q.378-5.341.768-10.681c.321-4.419.635-8.839.969-13.257.24-3.176.544-6.348.753-9.526.132-2.01.158-4.029.2-6.044.078-3.653.011-7.314.233-10.957a84.851,84.851,0,0,1,1.1-9.454c.77-4.4,3.717-6.821,7.923-7.753a30.538,30.538,0,0,1,6.391-.916,20.574,20.574,0,0,1,8.393,1.466,5.415,5.415,0,0,1,3.432,5.06c.3,6.1.562,12.207.838,18.311ZM108.339,474.6a32.568,32.568,0,0,0-4.256,1.1c-4.031,1.625-6.927,4.288-7.277,8.925-.519,6.879-.959,13.764-1.473,20.643-.441,5.888-.937,11.773-1.412,17.658q-.828,10.267-1.661,20.534c-.441,5.5-.91,11-1.288,16.508a54.506,54.506,0,0,0-.079,6.526c.075,1.455.89,2.136,2.34,2.393.851.151,1.719.2,2.577.321,4.11.571,7.266,3.786,6.477,7.343-.091.41.035.645.507.38,2.012-1.13,4.053-2.211,6.032-3.4a4.79,4.79,0,0,0,2.555-3.946c.432-6.823.911-13.643,1.337-20.466.614-9.835,1.177-19.674,1.8-29.508.415-6.566,1.014-13.122,1.306-19.693.223-5.033.1-10.081.122-15.122.008-1.661,0-3.323,0-4.984l.145,0c.069.988.138,1.977.227,3.257,1.839-2.992,1.5-5.387-1.122-7.568a4.712,4.712,0,0,1,3.353,5.76,22.9,22.9,0,0,0-.627,3.781c-.374,7.243-.621,14.492-1.041,21.732-.23,3.965-.827,7.909-1.065,11.874-.467,7.754-.737,15.519-1.2,23.273-.533,8.906-1.176,17.805-1.805,26.705a10.216,10.216,0,0,1-.586,2.988,7.407,7.407,0,0,1-3.648,3.548c-2.316,1.3-4.66,2.56-6.894,3.99a4.78,4.78,0,0,0-2.485,3.913c-.029.962.032,1.927.025,2.89-.049,6.675-.078,13.35-.178,20.024-.028,1.865-.269,3.727-.412,5.591l.291.057c.25-.943.554-1.875.742-2.83a46.109,46.109,0,0,0,.452-13.527c-.5-5.081,1.145-9.689,2.712-14.342.049-.146.2-.256.439-.537-.072.392-.1.579-.141.764-1.2,5.694-2.037,11.359-1.384,17.263A29.211,29.211,0,0,1,98.4,615.951a9.369,9.369,0,0,0-.919,2.611,33.6,33.6,0,0,1-4.172,10.3c-1.841,3.152-3.595,6.355-5.375,9.542a7.47,7.47,0,0,0-.385.989c2.108-4.174,4.761-7.747,9.215-9.605a.467.467,0,0,1-.216.308,20.526,20.526,0,0,0-6.823,8.655c-.18.422-.469.86.32.955,1.719.206,3.435.45,5.16.6a1.3,1.3,0,0,0,1-.48,81.574,81.574,0,0,0,8.829-16.729,19.144,19.144,0,0,0,1.617-8.334,70.012,70.012,0,0,1-.24-7.968,8.686,8.686,0,0,1,2.587-6.06,2.55,2.55,0,0,0,.866-1.971c.087-4.172.121-8.351.408-12.511.175-2.539.782-5.047,1.165-7.573.021-.138-.251-.464-.368-.455-.874.068-1.744.2-2.616.308a3.985,3.985,0,0,1,1.342-.453c1.528-.165,3.06-.314,4.594-.406,1.745-.105,2.422-.685,2.384-2.431a228.82,228.82,0,0,1,.951-23.952c.587-7.036,1.143-14.075,1.606-21.12.5-7.589,1.037-15.182,1.256-22.782.214-7.415.1-14.841.021-22.261-.031-2.914-.332-5.827-.566-8.735a3.529,3.529,0,0,0-2.516-3.427,32.313,32.313,0,0,0-5.815-1.17,20.416,20.416,0,0,0-10.989,1.749c-2.4,1.179-3.522,3.281-3.917,5.909C99.81,475.74,103.5,473.786,108.339,474.6Zm208,4.833c-.455-3.028-1.933-5.247-4.773-6.293a24.1,24.1,0,0,0-15.318-.454,3.971,3.971,0,0,0-3.143,3.7c-.222,2.749-.533,5.5-.563,8.253q-.12,11.033-.012,22.069c.034,3.722.222,7.446.441,11.163.312,5.286.695,10.568,1.086,15.848s.864,10.555,1.24,15.836c.38,5.346.747,10.694,1,16.047.147,3.173.044,6.358.071,9.538.016,1.844.648,2.47,2.492,2.524.546.016,1.1-.027,1.637.036,1.314.154,2.622.355,3.932.537a9.446,9.446,0,0,1-2.306-.012c-.139-.008-.44.3-.421.418.387,2.59,1,5.16,1.182,7.762.291,4.224.29,8.469.444,12.7a2.475,2.475,0,0,0,.406,1.195,25.949,25.949,0,0,1,2.189,3.22c1.327,2.945,1.11,6.088.747,9.194a19.148,19.148,0,0,0,.84,8.724,83.04,83.04,0,0,0,9.475,18.439,1.286,1.286,0,0,0,1.012.426c1.66-.149,3.311-.387,4.966-.583.554-.065.857-.23.519-.851-.6-1.1-1.117-2.238-1.759-3.308a21.939,21.939,0,0,0-5.341-5.778c4.474,1.848,7.1,5.455,9.124,9.654a2.132,2.132,0,0,0-.23-.92c-1.094-2.067-2.128-4.171-3.322-6.179-2.1-3.53-4.354-6.971-5.563-10.952a34.634,34.634,0,0,0-1.825-5.739,32.815,32.815,0,0,1-3.153-17.966c.306-3.848.57-7.667-.435-11.475-.481-1.822-.692-3.716-1.025-5.577l.307-.086c.4,1.236.832,2.462,1.189,3.71.97,3.394,1.876,6.762,1.686,10.392-.21,3.993-.105,8.011.052,12.011a32.483,32.483,0,0,0,.955,4.983l.356-.07c0-.317.016-.635,0-.951-.234-4-.612-8.006-.677-12.012-.081-5.038.1-10.08.157-15.121a3.934,3.934,0,0,0-1.477-3.409c-1.748-1.286-3.557-2.5-5.395-3.649-1.273-.8-2.7-1.358-3.946-2.19a5.543,5.543,0,0,1-2.666-3.945c-.166-1.337-.278-2.682-.367-4.027q-1.062-16.238-2.1-32.477-.611-9.5-1.2-19.006c-.449-7.4-.856-14.8-1.312-22.2-.242-3.927.041-7.882-.946-11.771a4.457,4.457,0,0,1,3.245-5.307c-2.441,3.074-2.795,5.5-.937,7.341.067-1.083.127-2.063.188-3.043a6.961,6.961,0,0,1,.134,1.613c.1,7.734-.261,15.464.446,23.2.747,8.179,1.08,16.4,1.586,24.6.35,5.671.671,11.343,1.033,17.013.493,7.719,1.03,15.436,1.506,23.157a4.449,4.449,0,0,0,2.026,3.736c2.17,1.36,4.429,2.578,6.667,3.828.036.02.4-.325.393-.485-.195-2.95.89-5.1,3.577-6.288a16.07,16.07,0,0,1,4.533-1.131c2.482-.3,3.437-1.163,3.457-3.682.012-1.473-.056-2.951-.164-4.421-.385-5.217-.8-10.431-1.21-15.646q-.639-8.109-1.292-16.217-.63-7.821-1.276-15.64c-.342-4.158-.73-8.312-1.025-12.473-.37-5.218-.624-10.444-1.02-15.66a10.9,10.9,0,0,0-.884-3.9,11.639,11.639,0,0,0-8.576-6.344c-.376-.079-.758-.135-1.137-.2-.339-.058-.679-.115-1.018-.172C309.665,473.8,313.349,475.749,316.339,479.432ZM89.16,641.077c-1.18.078-1.986.086-2.78.191-3.157.421-5.034,2.546-4.7,5.359a6.359,6.359,0,0,0,2.378,4.259c2.46,2.03,5.452,2.847,8.449,3.528,6.416,1.458,12.888,2.669,19.294,4.164a274.386,274.386,0,0,1,49.682,16.982,25.8,25.8,0,0,0,9.889,2.467,64.219,64.219,0,0,1,14.833,2.16c8.755,2.369,16.6,6.376,22.782,13.132a97.5,97.5,0,0,1,6.059,8.149c.3.4.57.944.984,1.129,4.951,2.208,9.876,4.489,14.915,6.477a9.468,9.468,0,0,0,8.48-.347c2.428-1.4,3.661-3.705,2.739-6.223a20.245,20.245,0,0,0-3.438-6.251c-3.719-4.3-8.687-6.9-13.984-8.695-4.826-1.639-9.77-2.943-14.7-4.263a52.621,52.621,0,0,1-16.464-7.7,32.168,32.168,0,0,0-12.354-5.571c-5.2-.982-10.456-1.633-15.693-2.391-5.342-.773-10.538-2-15.234-4.8a5.628,5.628,0,0,0-3.493-.753,30.364,30.364,0,0,1-12.087-1.289,28.645,28.645,0,0,0-9.673-1.261,18.523,18.523,0,0,1-3.729-.326c-3.228-.608-5.72-2.546-7.955-4.793a54.7,54.7,0,0,0-11.956-9.609,28.444,28.444,0,0,0-5.676-2.784A42.3,42.3,0,0,0,89.16,641.077Zm242.372,4.875a10.13,10.13,0,0,0-.155-1.051c-.5-2.047-2.346-3.474-4.9-3.654a23.793,23.793,0,0,0-14.787,3.5,70.356,70.356,0,0,0-12.129,9.871c-2.228,2.212-4.72,4.156-7.938,4.612-2.117.3-4.288.193-6.431.328a15.822,15.822,0,0,0-4.092.47,39.122,39.122,0,0,1-15.548,2.056,4.915,4.915,0,0,0-2.1.475c-2.69,1.116-5.284,2.516-8.043,3.4-5.5,1.771-11.283,2.062-16.97,2.837-4.983.679-9.927,1.589-14.383,4.033-3.221,1.766-6.271,3.846-9.4,5.781-.733.453-.169.628.177.819,1.573.867,3.133,1.761,4.744,2.551a2.289,2.289,0,0,0,1.518.081c2.093-.614,4.14-1.389,6.242-1.966a77.068,77.068,0,0,1,15.9-2.208,14.481,14.481,0,0,0,4.891-.861,340.642,340.642,0,0,1,35.038-13.461,271.127,271.127,0,0,1,29.782-7.461c4.785-.925,9.624-1.734,14.071-3.879C329.589,650.992,331.35,649.081,331.533,645.952Zm-153.489,64.04a27.628,27.628,0,0,0,4.656-1.065c4.828-2,9.589-4.156,14.362-6.285a2.36,2.36,0,0,0,.858-.863c1-1.482,1.945-3,2.955-4.476.423-.617.4-.974-.308-1.339-4.587-2.366-9.152-4.777-13.75-7.121a1.915,1.915,0,0,0-1.5-.032c-1.979.979-3.967,1.965-5.838,3.131a18.966,18.966,0,0,0-8.376,9.938,5.145,5.145,0,0,0,1.285,5.831A8.623,8.623,0,0,0,178.043,709.992Zm116.4-65.144c-4.53-.456-35.745,6.972-38.282,9.054,2.247.439,4.537.874,6.822,1.335,2.389.481,4.754,1.122,7.163,1.451,4.779.654,8.859-1.25,12.7-3.826q5.66-3.8,11.29-7.642A1.9,1.9,0,0,0,294.442,644.849Zm-137.351,9.127c-.069-.115-.087-.194-.133-.215a7.336,7.336,0,0,0-.706-.3,199.269,199.269,0,0,0-36.877-8.656,2.2,2.2,0,0,0-.594.076,2.567,2.567,0,0,0,.441.449c1.339.82,2.733,1.559,4.025,2.445,2.852,1.956,5.61,4.052,8.49,5.964a16.73,16.73,0,0,0,12.926,2.752c2.642-.531,5.25-1.232,7.888-1.787C154.04,654.388,155.558,654.216,157.091,653.976Zm111.266,6.986.037-.242c.961-.049,1.924-.082,2.884-.148a28.661,28.661,0,0,0,17.641-6.983c3.069-2.719,6.112-5.468,9.159-8.211.387-.349.727-.749,1.089-1.125a4.926,4.926,0,0,0-1.81.183,55.955,55.955,0,0,0-5.776,3.4c-3.555,2.5-6.91,5.3-10.524,7.7a14.851,14.851,0,0,1-10.7,2.64c-3-.477-5.93-1.368-8.919-1.927a47.375,47.375,0,0,0-7.5-1c-3.4-.082-6.321,1.741-9.389,2.931a2.418,2.418,0,0,0-.587.491c.238.018.475.046.713.052,3.2.084,6.416-.034,9.59.292C258.979,659.5,263.661,660.3,268.357,660.962Zm-99.266-2.306.051-.208c-1.012-.437-2.049-.824-3.033-1.318a18.335,18.335,0,0,0-13.857-1.042c-1.818.529-3.66.975-5.491,1.459-4.572,1.21-9.083,1.18-13.262-1.229-2.623-1.512-5.05-3.369-7.536-5.113-2.75-1.928-5.43-3.958-8.219-5.827a13.633,13.633,0,0,0-3.093-1.231c-.184-.065-.446.094-.673.149a3.12,3.12,0,0,0,.383.52q4.329,3.885,8.669,7.758a29.379,29.379,0,0,0,13.768,7.29,44.764,44.764,0,0,0,17.117-.11c4.684-.834,9.375-1.552,14.159-1.1C168.412,658.684,168.753,658.657,169.091,658.657Zm58.033,11.125.161.271c.351-.1.7-.19,1.053-.294a41.463,41.463,0,0,1,4.98-1.457c5.566-.919,11.156-1.695,16.738-2.521a44.227,44.227,0,0,0,11.892-3.425c.2-.09.337-.316.5-.479a3,3,0,0,0-.584-.235c-1.263-.226-2.532-.42-3.795-.649a51.441,51.441,0,0,0-11.556-1.215c-2.454.114-4.969.067-7.151,1.513-3.093,2.049-6.2,4.082-9.266,6.167C229.061,668.163,228.113,669,227.124,669.782Zm-41.05.294.136-.147c-.315-.27-.613-.561-.946-.805-2.607-1.913-5.241-3.79-7.829-5.729a18.872,18.872,0,0,0-14.191-3.519c-3.946.492-7.871,1.151-11.8,1.748a3.711,3.711,0,0,0-.749.286,4.328,4.328,0,0,0,.655.474,45.287,45.287,0,0,0,13.136,3.608c5.018.716,10.048,1.371,15.041,2.235A62.517,62.517,0,0,1,186.075,670.076Zm39.4,16.4.191-.365c-15.687-8.438-31.557-16.509-47.818-23.8a.332.332,0,0,0,.123.287c4.064,2.9,8.144,5.781,12.19,8.709,3.947,2.857,7.79,6,12.387,7.658C210.108,681.693,217.823,683.995,225.474,686.477ZM92.12,657.8a3.482,3.482,0,0,1,.006-.672c.2-1.005-.269-1.4-1.211-1.618a31.31,31.31,0,0,1-3.482-1.1c-.623-.223-.844-.12-.712.56.867,4.463,1.635,8.948,2.631,13.382a31.013,31.013,0,0,0,2.131,6.156,5.308,5.308,0,0,0,4.615,3.306c1.146.073,1.567-.321,1.236-1.41-.744-2.446-1.568-4.874-2.483-7.261A36.911,36.911,0,0,1,92.12,657.8ZM316.993,677.98a15.922,15.922,0,0,0,2.378-.929,7.378,7.378,0,0,0,3.121-4.249,91.015,91.015,0,0,0,3.94-17.8c.085-.637-.13-.746-.677-.574-1.405.445-2.823.855-4.212,1.344a.97.97,0,0,0-.487.753c.106,4.528-1.267,8.711-2.86,12.863-.893,2.327-1.67,4.7-2.393,7.09C315.5,677.471,315.9,677.825,316.993,677.98Zm-81.641-15.53-.085-.165c-1.626.72-3.276,1.393-4.874,2.169q-10.988,5.334-21.955,10.712c-.576.281-.71.527-.054.868,1.137.591,2.247,1.242,3.414,1.767a1.716,1.716,0,0,0,1.321-.019,31.02,31.02,0,0,0,3.636-2.147c4.568-3.237,9.091-6.538,13.647-9.793C232.028,664.679,233.7,663.579,235.351,662.451ZM322.9,568.326a4.452,4.452,0,0,1-3.489,2.139c-.537.091-1.085.126-1.62.228-2.109.406-4.03,1.142-5.135,3.167a3.759,3.759,0,0,0,.68,4.655c.289-3.211,1.462-4.935,4.072-5.773a16.451,16.451,0,0,1,2.83-.507C322.68,571.906,323.292,571.106,322.9,568.326ZM90.292,568.4c-.5,2.472.119,3.42,2.293,3.763.41.065.827.089,1.241.13,3.242.318,5.354,2.108,5.876,5,.075.418.083.848.129,1.35,1.744-2.161,1.564-4.737-.629-6.29a12.443,12.443,0,0,0-4.017-1.65C93.442,570.251,91.495,570.376,90.292,568.4ZM303.6,600.86A46.566,46.566,0,0,0,305.105,612C305.661,608.147,305.937,604.331,303.6,600.86Zm-193.765.052-.4-.075c-2.207,3.461-1.957,7.243-1.5,11.054l.405.055Zm13.467,54.14.21-.21c-1.337-1.276-2.657-2.57-4.015-3.824-2.469-2.279-4.948-4.549-7.458-6.782a5.3,5.3,0,0,0-1.446-.621ZM302.464,643.7a4.1,4.1,0,0,0-1.121.383,23.172,23.172,0,0,0-2.66,2.053c-2.989,2.811-5.933,5.67-8.89,8.515a.849.849,0,0,0-.125.257l.183.149Z" transform="translate(-80.169 -450.858)"/>
      <path id="Path_15" data-name="Path 15" class="cls-1" d="M607.124,767.4c-1.565-.432-3.118-.917-4.7-1.284-2.4-.558-4.838-1.227-7.315-.677a33.315,33.315,0,0,0-4.17,1.5l.12.341L593,766.8l-2.684,1.622.08.324c.418,0,.836.005,1.254,0,2.474-.037,4.959-.123,7.307.85a8.62,8.62,0,0,1,1.989,1.139c.805.628.65,1.317-.219,1.806a4.575,4.575,0,0,0-1.312,1.094,7.97,7.97,0,0,1-4.423,2.978,24.936,24.936,0,0,0,2.422-2.269c1.517-1.845,1.377-2.259-.94-2.788-1.369-.313-2.784-.419-4.178-.625-.607-.089-.827.1-.457.655.335.5.537.848-.167,1.305a.933.933,0,0,0-.035,1.574c.527.411.354.686.072,1.083a3.554,3.554,0,0,1-6.165-3.424c.106-.262.177-.538.263-.808a5.974,5.974,0,0,0-.927,0c-1.426.221-2.844.5-4.273.692-.927.125-.983.495-.6,1.265.754,1.533,1.02,1.865,3.716,3.875a6.65,6.65,0,0,1-5.013-3.478c-.384-.842-.756-1.16-1.628-.784a1.1,1.1,0,0,1-.931-.092c.684-.356,1.372-.7,2.047-1.074a2.1,2.1,0,0,0,.4-.379,2.159,2.159,0,0,0-.457-.293c-1.849-.61-3.715-1.173-5.547-1.831a1.849,1.849,0,0,1-1.1-.945,15.663,15.663,0,0,1,.054-8.895c.078,1.441.141,2.883.238,4.322.086,1.279.228,2.555.31,3.835.062.97.648,1.24,1.493,1.219a2.026,2.026,0,0,0,.478-.044c3.651-.992,7.317-1.931,10.938-3.023a18.946,18.946,0,0,0,2.838-1.6,39.093,39.093,0,0,1,4.847-2.3c2.762-.957,5.5-.093,8.226.471l-2.718-.275-.13.356A21.357,21.357,0,0,1,607.124,767.4Z" transform="translate(-441.353 -663.721)"/>
      <path id="Path_16" data-name="Path 16" class="cls-1" d="M433.574,759.488a15.351,15.351,0,0,1,.07,8.8c-.118.429-.758.837-1.245,1.022-1.613.613-3.268,1.115-4.9,1.67-.532.18-.5.446-.046.688.761.4,1.535.782,2.311,1.176a1.251,1.251,0,0,1-.139.212c-1.344-.463-2.1-.046-2.806,1.274-.971,1.813-2.849,2.583-4.849,2.993a15.359,15.359,0,0,0,1.534-.954,7.1,7.1,0,0,0,1.364-1.339,21.468,21.468,0,0,0,1.206-2.065c.269-.471.113-.681-.408-.767-1.676-.278-3.346-.6-5.024-.858-.119-.018-.447.392-.412.453.283.5.157.778-.225,1.226a1.532,1.532,0,0,0-.067,1.494c.44.483.281.737.015,1.116a3.551,3.551,0,0,1-6.041-3.69c.136-.275.232-.57.346-.856a4.079,4.079,0,0,0-.922-.043c-1.73.31-3.455.646-5.179.984-.775.152-.855.658-.432,1.181,1,1.242,2.074,2.431,2.938,3.435a7.692,7.692,0,0,1-4.178-2.945,3.539,3.539,0,0,0-1.234-1.058c-.973-.5-1.122-1.1-.261-1.831a9.838,9.838,0,0,1,5.93-1.953c1.023-.073,2.055-.018,3.082-.045a.411.411,0,1,0,.166-.69c-.625-.384-1.273-.733-2.1-1.2l1.964.377a8.413,8.413,0,0,0-6.7-1.874c-3.025.518-6,1.317-9,2-.268.061-.528.158-1.1.331a25.146,25.146,0,0,1,9.736-5.284l-.067-.333-2.631.161-.03-.225c1.352-.16,2.712-.268,4.053-.49,3.874-.64,6.875,1.375,9.985,3.153a19.539,19.539,0,0,0,4.008,1.8c2.764.83,5.574,1.516,8.385,2.178,1.781.419,2.268.048,2.416-1.755.181-2.206.271-4.418.4-6.628C433.505,760.049,433.544,759.769,433.574,759.488Z" transform="translate(-313.544 -663.799)"/>
      <path id="Path_17" data-name="Path 17" class="cls-1" d="M452.174,722.376c2.895-.457,5.781-.977,8.686-1.355,4.719-.615,9.251.56,13.779,1.631a20.218,20.218,0,0,0,12.1-.617,30.5,30.5,0,0,1,20.476-.674,1.608,1.608,0,0,0,.875.13c-2.791-.369-5.572-.9-8.375-1.069a27.327,27.327,0,0,0-12.079,1.924,22.024,22.024,0,0,1-14.327.637,59.467,59.467,0,0,0-7.357-1.432c-4.416-.567-8.759.2-13.081,1.04-.213.041-.43.064-.645.1Z" transform="translate(-353.986 -634.664)"/>
      <path id="Path_18" data-name="Path 18" class="cls-1" d="M469.278,698.48a29.084,29.084,0,0,1,15.916-.632c1.641.432,3.319.734,4.99,1.039a14.874,14.874,0,0,0,8.025-.917,25.7,25.7,0,0,1,11.136-1.728,57.9,57.9,0,0,1,6.254,1.007,66.414,66.414,0,0,0-7.819-.509,25.2,25.2,0,0,0-7.723,1.3,21.4,21.4,0,0,1-14.223.566,31.638,31.638,0,0,0-15.711-.254C469.845,698.41,469.56,698.438,469.278,698.48Z" transform="translate(-366.576 -617.195)"/>
      <path id="Path_19" data-name="Path 19" class="cls-1" d="M499.151,673.826a17.712,17.712,0,0,1,10.322-.6,15.245,15.245,0,0,0,9.8-.238,14.392,14.392,0,0,1,10.357.209c-.812-.13-1.621-.294-2.438-.38a12.128,12.128,0,0,0-2.587-.131,21.772,21.772,0,0,0-5.28.877,14.031,14.031,0,0,1-9.326.371,21.142,21.142,0,0,0-10.194-.2C499.589,673.778,499.369,673.8,499.151,673.826Z" transform="translate(-388.564 -599.492)"/>
      <path id="Path_20" data-name="Path 20" class="cls-1" d="M568.419,833.248v8.6l-.2,0v-8.6Z" transform="translate(-439.404 -718.09)"/>
      <path id="Path_21" data-name="Path 21" class="cls-1" d="M602.64,838.432l4.813,3.05A6.588,6.588,0,0,1,602.64,838.432Z" transform="translate(-464.738 -721.906)"/>
      <path id="Path_22" data-name="Path 22" class="cls-1" d="M496.655,837.58a6.514,6.514,0,0,1-4.649,3.175Z" transform="translate(-383.305 -721.279)"/>
      <path id="Path_23" data-name="Path 23" class="cls-1" d="M160.786,562.885a1.54,1.54,0,0,0,1.16-2.078c-.266-.949-.564-1.959-1.709-2.256a1.958,1.958,0,0,0-2.332.94,13,13,0,0,0-1.379,4.123c-.429,3.817,1.294,7.018,3.247,10.139a36.01,36.01,0,0,1,3.246,5.952,4.681,4.681,0,0,1-1.3,5.373,3.553,3.553,0,0,1-5.04.093,7.873,7.873,0,0,1-2.54-4.431,2.719,2.719,0,0,1,2.059-3.225,2.48,2.48,0,0,1,3,1.733,2.2,2.2,0,0,1-.354,1.488c-.174.264-.732.275-1,.36.308-.477.777-.891.828-1.351.092-.831-.545-1.255-1.306-1.4a1.618,1.618,0,0,0-1.964.825,1.849,1.849,0,0,0-.133,1.376,13.818,13.818,0,0,0,2.154,3.542c1.407,1.428,3.629.613,4.205-1.388a5.32,5.32,0,0,0-.6-4.27c-1.071-1.822-2.3-3.548-3.371-5.372-1.938-3.318-3.237-6.833-2.235-10.73a11.518,11.518,0,0,1,1.817-3.646,2.852,2.852,0,0,1,3.546-.87,3.984,3.984,0,0,1,1.752,3.8A1.548,1.548,0,0,1,160.786,562.885Z" transform="translate(-134.574 -515.142)"/>
      <path id="Path_24" data-name="Path 24" class="cls-1" d="M148.332,684.247c.957-.07,1.467.558,1.2,1.612a2.421,2.421,0,0,1-2.6,1.693,2.555,2.555,0,0,1-2.391-2.355c-.133-1.939,1.038-3.27,2.3-4.462,1.668-1.574,3.305-1.838,4.8-.982a4.67,4.67,0,0,1,2.131,5.139c-.456,2.334-1.983,3.994-3.551,5.6a24.9,24.9,0,0,0-5.08,6.723,10.711,10.711,0,0,0-.862,6.756,5.113,5.113,0,0,0,.4,1.181,2.268,2.268,0,0,0,2.674,1.513,3.189,3.189,0,0,0,1.854-2.9,4.259,4.259,0,0,0-.575-1.142,1.472,1.472,0,0,1,1.092,1.717,3.947,3.947,0,0,1-2.38,3.228,3.141,3.141,0,0,1-3.48-1.67,9.153,9.153,0,0,1-.717-7.091c.8-3.249,2.744-5.818,4.943-8.239a42.1,42.1,0,0,0,3.476-4.1,4.039,4.039,0,0,0,.38-4.54,2.32,2.32,0,0,0-3.3-.969,6.124,6.124,0,0,0-2.913,3.209c-.295.737-.4,1.681.39,2.079a3.61,3.61,0,0,0,2.23.154c.312-.067.583-.841.647-1.323C149.044,684.841,148.575,684.529,148.332,684.247Z" transform="translate(-126.247 -604.756)"/>
      <path id="Path_25" data-name="Path 25" class="cls-1" d="M168.412,633.922c1.641,1.415,2.218,4.722,1.263,7.159a5.19,5.19,0,0,1-2.62,2.942c-.622.3-.664.489-.061.95,3,2.3,2.893,7.849-.163,10.049-.038.028-.113,0-.207,0,.326-1,.726-1.98.96-3,.938-4.068-.749-6.568-4.856-7.248-.758-.126-1.535-.135-2.295-.253a3.987,3.987,0,0,1-.891-.367c.209-.428.17-1.029,1-.87a14.184,14.184,0,0,0,2.684.159c3.573-.008,5.583-1.95,5.6-5.526A35.753,35.753,0,0,0,168.412,633.922Z" transform="translate(-138.593 -571.375)"/>
      <path id="Path_26" data-name="Path 26" class="cls-1" d="M171.328,577.8c.21,4.3,1.741,8.016,3.651,11.7C171.744,588.606,169.1,580.315,171.328,577.8Z" transform="translate(-146.659 -530.067)"/>
      <path id="Path_27" data-name="Path 27" class="cls-1" d="M161.655,726.1l-6.071,9.093C154.734,732.294,159.069,726.844,161.655,726.1Z" transform="translate(-135.599 -639.222)"/>
      <path id="Path_28" data-name="Path 28" class="cls-1" d="M143.6,678.163a12.242,12.242,0,0,0-3.739,6.436C138.655,682.391,140.981,678.442,143.6,678.163Z" transform="translate(-123.864 -603.939)"/>
      <path id="Path_29" data-name="Path 29" class="cls-1" d="M147.087,646.38c-2.091-.3-4.3-4.563-2.667-7.037A12.287,12.287,0,0,0,147.087,646.38Z" transform="translate(-127.045 -575.365)"/>
      <path id="Path_30" data-name="Path 30" class="cls-1" d="M931.59,562.918a1.746,1.746,0,0,1-1.653-2.15,3.519,3.519,0,0,1,2.435-3.154,3.746,3.746,0,0,1,3.763,2.148,11.183,11.183,0,0,1,.7,8.95,27.573,27.573,0,0,1-4.161,7.764c-1.159,1.679-2.179,3.419-1.928,5.6a2.789,2.789,0,0,0,2.913,2.707,1.978,1.978,0,0,0,.99-.3,5.914,5.914,0,0,0,2.622-4.082,2.438,2.438,0,0,0-.852-1.822,1.6,1.6,0,0,0-2.186.288,1.845,1.845,0,0,0-.346,1.393c.047.289.587.5,1.035.841-.423-.074-.983-.014-1.132-.233a2.113,2.113,0,0,1,2.184-3.39,2.7,2.7,0,0,1,2.448,2.648,7.408,7.408,0,0,1-3.816,5.85c-2.308.885-5.034-1.067-5.336-3.79-.282-2.549.934-4.562,2.19-6.61a61.04,61.04,0,0,0,3.792-6.766,9.742,9.742,0,0,0,.277-7.516,5.887,5.887,0,0,0-1.818-2.468c-.963-.748-2.023-.309-2.648.785C930.188,561.138,930.305,562.113,931.59,562.918Z" transform="translate(-705.125 -515.172)"/>
      <path id="Path_31" data-name="Path 31" class="cls-1" d="M938.359,702.665a1.874,1.874,0,0,0-.412,2.15c.368.934.857,1.853,1.981,2.041a2.031,2.031,0,0,0,2.189-1.074,7.7,7.7,0,0,0,.731-5.235c-.471-3.287-2.331-5.851-4.456-8.261-1.356-1.537-2.806-3.006-4.023-4.647a5.67,5.67,0,0,1-1.093-4.823c.788-3.246,3.932-4.355,6.507-2.252,1.489,1.216,2.774,2.617,2.73,4.734a2.484,2.484,0,0,1-1.859,2.309,2.546,2.546,0,0,1-2.831-.914c-.762-1.054-.36-2.173,1.11-2.373-.97.485-1.177,1.09-.745,1.814a1.717,1.717,0,0,0,2.129.645,1.472,1.472,0,0,0,1.151-1.658c-.056-1.7-2.453-4.226-4.129-4.329a2.862,2.862,0,0,0-2.727,3.1,6.5,6.5,0,0,0,1.824,4.141c1.692,1.968,3.538,3.819,5.071,5.9,2.2,2.993,3.386,6.378,2.441,10.135a7.932,7.932,0,0,1-1.716,3.021,2.51,2.51,0,0,1-3.262.292c-1.148-.775-1.989-2.66-1.546-3.675A4.486,4.486,0,0,1,938.359,702.665Z" transform="translate(-707.989 -604.916)"/>
      <path id="Path_32" data-name="Path 32" class="cls-1" d="M920.235,633.853a35.431,35.431,0,0,0-.431,3.9c-.016,3.69,1.989,5.651,5.674,5.652.992,0,1.985-.11,2.978-.126.165,0,.334.221.5.341-.219.241.528.893-.406.862a15.132,15.132,0,0,0-2.009.188c-4.875.5-6.575,3.271-5.266,8.185.2.761.553,1.482.9,2.405a5.994,5.994,0,0,1-2.378-3.349c-.794-2.5-.371-5.512,1.967-7.086.786-.529.08-.713-.253-.871-3.4-1.617-3.942-6.987-1.56-9.922A.953.953,0,0,1,920.235,633.853Z" transform="translate(-697.227 -571.324)"/>
      <path id="Path_33" data-name="Path 33" class="cls-1" d="M931.241,589.6c1.751-3.682,3.32-7.406,3.512-11.631C937.036,580.095,934.729,587.686,931.241,589.6Z" transform="translate(-706.607 -530.193)"/>
      <path id="Path_34" data-name="Path 34" class="cls-1" d="M939.364,726.191c3.094.872,6.587,6.207,6.07,9.1Z" transform="translate(-712.586 -639.29)"/>
      <path id="Path_35" data-name="Path 35" class="cls-1" d="M967.518,684.452A31.379,31.379,0,0,0,966,681.1a29.309,29.309,0,0,0-2.178-2.864C966.258,678.448,968.609,682.427,967.518,684.452Z" transform="translate(-730.587 -603.991)"/>
      <path id="Path_36" data-name="Path 36" class="cls-1" d="M961.637,646.87a12.427,12.427,0,0,0,2.781-7.075C965.949,641.716,964.456,645.744,961.637,646.87Z" transform="translate(-728.981 -575.698)"/>
      <path id="Path_37" data-name="Path 37" class="cls-1" d="M113.625,1125.787a4.065,4.065,0,0,1,3.975,4.014,4.129,4.129,0,0,1-4,4.009,4.012,4.012,0,0,1,.025-8.023Z" transform="translate(-101.853 -933.416)"/>
      <path id="Path_38" data-name="Path 38" class="cls-1" d="M648.119,1341.632a3.8,3.8,0,0,1-3.816-3.878,3.84,3.84,0,0,1,7.68.036A3.841,3.841,0,0,1,648.119,1341.632Z" transform="translate(-495.404 -1086.641)"/>
      <path id="Path_39" data-name="Path 39" class="cls-1" d="M978.359,1129.774a3.989,3.989,0,1,1,3.972,4.039A4.137,4.137,0,0,1,978.359,1129.774Z" transform="translate(-741.289 -933.418)"/>
      <path id="Path_40" data-name="Path 40" class="cls-1" d="M448.6,1341.637a3.857,3.857,0,0,1-3.808-3.8,4.013,4.013,0,0,1,3.778-3.876,3.945,3.945,0,0,1,3.887,3.849A3.78,3.78,0,0,1,448.6,1341.637Z" transform="translate(-348.556 -1086.644)"/>
    </g>
  </g>
</svg>
